<?xml version="1.0" encoding="UTF-8" standalone="no"?>
<!-- Created with Inkscape (http://www.inkscape.org/) -->

<svg
   xmlns:dc="http://purl.org/dc/elements/1.1/"
   xmlns:cc="http://creativecommons.org/ns#"
   xmlns:rdf="http://www.w3.org/1999/02/22-rdf-syntax-ns#"
   xmlns:svg="http://www.w3.org/2000/svg"
   xmlns="http://www.w3.org/2000/svg"
   xmlns:sodipodi="http://sodipodi.sourceforge.net/DTD/sodipodi-0.dtd"
   xmlns:inkscape="http://www.inkscape.org/namespaces/inkscape"
   width="300"
   height="300"
   viewBox="0 0 79.374998 79.375002"
   version="1.1"
   id="svg8"
   inkscape:version="0.92.3 (2405546, 2018-03-11)"
   sodipodi:docname="skill_point_be-c.svg">
  <defs
     id="defs2">
  </defs>
  <sodipodi:namedview
     id="base"
     pagecolor="#ffffff"
     bordercolor="#666666"
     borderopacity="1.0"
     inkscape:pageopacity="0.0"
     inkscape:pageshadow="2"
     inkscape:zoom="0.7"
     inkscape:cx="154.63902"
     inkscape:cy="571.23991"
     inkscape:document-units="mm"
     inkscape:current-layer="layer1"
     showgrid="false"
     inkscape:window-width="1920"
     inkscape:window-height="1017"
     inkscape:window-x="-8"
     inkscape:window-y="-8"
     inkscape:window-maximized="1"
     showguides="false"
     units="px" />
  <metadata
     id="metadata5">
    <rdf:RDF>
      <cc:Work
         rdf:about="">
        <dc:format>image/svg+xml</dc:format>
        <dc:type
           rdf:resource="http://purl.org/dc/dcmitype/StillImage" />
        <dc:title></dc:title>
      </cc:Work>
    </rdf:RDF>
  </metadata>
  <g
     inkscape:label="back"
     inkscape:groupmode="layer"
     id="layer1"
     style="display:inline"
     transform="translate(0,-217.62498)">
    <path
       style="fill:none;stroke:#000000;stroke-width:0.26458332px;stroke-linecap:butt;stroke-linejoin:miter;stroke-opacity:1;filter:url(#filter3735)"
       d="M 18.142857,89.491067 105.45536,23.345237 201.83928,89.113097 103.1875,266.00595 Z"
       id="path12"
       inkscape:connector-curvature="0" />
    <path
       style="fill:#ff4500;stroke-width:0.13341349"
       d="m 41.110221,295.61213 c 0.145901,-0.21184 7.992255,-11.18223 17.436349,-24.37864 9.444098,-13.19639 17.546079,-24.51992 18.0044,-25.16338 l 0.83332,-1.16994 -18.663945,-12.29401 c -10.265165,-6.76171 -18.707435,-12.30692 -18.7606,-12.32272 -0.100777,-0.03 -9.340841,6.39383 -26.680705,18.54867 -5.6038284,3.92815 -10.6733338,7.4787 -11.2655794,7.8901 l -1.07680346,0.748 19.44042286,23.64821 c 10.692236,13.00652 19.671604,23.92513 19.954152,24.26356 l 0.513725,0.61535 z m -1.194348,-14.2292 C 37.956992,279.43078 16.290381,257.02301 10.745822,251.21505 9.6305672,250.0468 8.7524688,249.04959 8.7944904,248.999 c 0.1264356,-0.15216 4.4183956,-2.74041 14.3639796,-8.66192 12.3932,-7.37882 16.417569,-9.72558 16.678001,-9.72558 0.231496,0 29.847439,16.50192 29.924456,16.67382 0.02557,0.0571 -4.262291,5.22284 -9.528617,11.47939 -16.985624,20.17946 -19.52461,23.1709 -19.666296,23.1709 -0.05254,0 -0.345109,-0.24871 -0.650141,-0.55268 z"
       id="path3768"
       inkscape:connector-curvature="0" />
    <path
       style="fill:#ff4500;stroke-width:0.1380733"
       d="m 43.500184,268.4514 c 2.665013,-3.11049 10.823807,-12.72254 21.376036,-25.18359 3.366341,-3.97529 6.084565,-7.27091 6.040506,-7.32362 -0.04406,-0.0528 -5.275799,-3.23469 -13.705562,-7.91497 -10.10818,-5.61214 -17.1122,-9.17625 -17.274804,-9.13011 -0.13561,0.0385 -1.095645,0.56441 -2.133424,1.16876 -4.460264,2.59743 -21.364752,12.58288 -25.438224,15.02632 l -4.4415098,2.66419 1.9460978,2.03548 c 3.824739,4.00038 21.082825,21.75268 28.090562,28.89496 1.489481,1.51808 2.767522,2.76016 2.840095,2.76016 0.07258,0 1.287672,-1.34891 2.700227,-2.99758 z"
       id="path3772"
       inkscape:connector-curvature="0"
       sodipodi:nodetypes="cscsccscscsc" />
  </g>
  <g
     inkscape:groupmode="layer"
     id="layer4"
     inkscape:label="middle"
     transform="translate(0,-217.62498)">
    <path
       style="display:inline;fill:#000000;stroke-width:0.12718701"
       d="m 43.28364,266.67921 c 2.439498,-2.88333 9.907879,-11.79342 19.567157,-23.34443 3.081474,-3.68496 5.569675,-6.73993 5.529346,-6.78878 -0.04035,-0.0488 -6.386772,-3.63849 -14.103194,-7.97696 -9.252808,-5.20229 -14.106708,-7.86608 -14.255555,-7.82331 -0.124134,0.0356 -1.002929,0.52319 -1.952892,1.0834 -4.082821,2.40774 -19.556817,11.66396 -23.285586,13.92895 l -4.065661,2.46964 1.781418,1.88682 c 3.501081,3.70823 19.298753,20.16407 25.713481,26.78476 1.363436,1.40722 2.533328,2.55857 2.599757,2.55857 0.06643,0 1.178709,-1.25039 2.471729,-2.77866 z"
       id="path3772-7"
       inkscape:connector-curvature="0" />
  </g>
  <g
     inkscape:groupmode="layer"
     id="layer2"
     inkscape:label="Text"
     style="display:inline"
     transform="translate(0,-217.62498)">
    <text
       xml:space="preserve"
       style="font-style:normal;font-variant:normal;font-weight:normal;font-stretch:normal;font-size:7.96923208px;line-height:1.25;font-family:'VCR OSD Mono';-inkscape-font-specification:'VCR OSD Mono';letter-spacing:0px;word-spacing:0px;fill:#ffffff;fill-opacity:1;stroke:none;stroke-width:0.09338943"
       x="23.958086"
       y="281.74686"
       id="text3758"
       transform="scale(1.1593461,0.86255516)"><tspan
         sodipodi:role="line"
         id="tspan3756"
         x="23.958086"
         y="281.74686"
         style="font-style:normal;font-variant:normal;font-weight:normal;font-stretch:normal;font-size:7.96923208px;font-family:'VCR OSD Mono';-inkscape-font-specification:'VCR OSD Mono';fill:#ffffff;stroke-width:0.09338943">Java </tspan></text>
    <text
       xml:space="preserve"
       style="font-style:normal;font-weight:normal;font-size:3.73557734px;line-height:1.25;font-family:sans-serif;letter-spacing:0px;word-spacing:0px;fill:#ffffff;fill-opacity:1;stroke:none;stroke-width:0.09338943"
       x="27.960487"
       y="268.6723"
       id="text3762"
       transform="scale(1.1593461,0.86255516)"><tspan
         sodipodi:role="line"
         id="tspan3760"
         x="27.960487"
         y="268.6723"
         style="font-style:normal;font-variant:normal;font-weight:normal;font-stretch:normal;font-size:7.96923208px;font-family:'VCR OSD Mono';-inkscape-font-specification:'VCR OSD Mono';fill:#ffffff;stroke-width:0.09338943">SQL</tspan></text>
    <text
       xml:space="preserve"
       style="font-style:normal;font-variant:normal;font-weight:normal;font-stretch:normal;font-size:6.97307777px;line-height:1.25;font-family:'VCR OSD Mono';-inkscape-font-specification:'VCR OSD Mono';letter-spacing:0px;word-spacing:0px;fill:#ffffff;fill-opacity:1;stroke:none;stroke-width:0.09338943"
       x="29.161207"
       y="294.9548"
       id="text3783"
       transform="scale(1.1593461,0.86255516)"><tspan
         sodipodi:role="line"
         id="tspan3781"
         x="29.161207"
         y="294.9548"
         style="font-style:normal;font-variant:normal;font-weight:normal;font-stretch:normal;font-size:6.97307777px;font-family:'VCR OSD Mono';-inkscape-font-specification:'VCR OSD Mono';fill:#ffffff;stroke-width:0.09338943">PHP</tspan></text>
  </g>
</svg>
