<?xml version="1.0" standalone="no"?>
<!DOCTYPE svg PUBLIC "-//W3C//DTD SVG 20010904//EN"
 "http://www.w3.org/TR/2001/REC-SVG-20010904/DTD/svg10.dtd">
<svg version="1.0" xmlns="http://www.w3.org/2000/svg"
 width="288.000000pt" height="288.000000pt" viewBox="0 0 288.000000 288.000000"
 preserveAspectRatio="xMidYMid meet">
<metadata>
Created by potrace 1.11, written by Peter Selinger 2001-2013
</metadata>
<g transform="translate(0.000000,288.000000) scale(0.100000,-0.100000)"
fill="#000000" stroke="none">
<path d="M1618 2338 c-9 -7 -29 -60 -46 -118 -17 -58 -69 -238 -116 -400 -114
-397 -189 -656 -221 -765 -15 -49 -28 -97 -30 -105 -2 -8 -27 -95 -55 -193
-46 -156 -50 -181 -38 -193 21 -21 117 -45 137 -34 10 5 28 48 45 107 15 54
30 105 33 113 3 8 7 20 8 26 3 11 46 160 180 624 143 495 243 845 249 871 4
17 1 31 -9 39 -10 8 -81 32 -121 40 0 0 -7 -6 -16 -12z"/>
<path d="M543 1778 c-213 -213 -323 -330 -323 -343 0 -25 637 -665 662 -665
25 0 117 100 111 119 -3 9 -124 135 -269 281 l-264 265 265 265 c200 200 265
271 265 289 0 27 -83 111 -109 111 -9 0 -161 -145 -338 -322z"/>
<path d="M1923 2050 c-35 -34 -50 -56 -46 -68 2 -10 123 -137 269 -283 l264
-264 -264 -265 c-146 -146 -266 -272 -268 -281 -4 -21 87 -119 110 -119 25 0
662 640 662 665 0 24 -637 665 -661 665 -8 0 -38 -22 -66 -50z"/>
</g>
</svg>
