{
    "accessors": [
        {
            "bufferView": 0,
            "byteOffset": 0,
            "componentType": 5126,
            "count": 544,
            "max": [
                10.675139427185059,
                1.9316197633743286,
                -25.01626968383789
            ],
            "min": [
                -10.938323020935059,
                -1.760177493095398,
                -27.016281127929688
            ],
            "name": "accessor_buffer_Cube.003_POSITION_0",
            "type": "VEC3"
        },
        {
            "bufferView": 2,
            "byteOffset": 0,
            "componentType": 5123,
            "count": 780,
            "max": [
                543
            ],
            "min": [
                0
            ],
            "name": "accessor_buffer_Cube.003_0",
            "type": "SCALAR"
        },
        {
            "bufferView": 1,
            "byteOffset": 0,
            "componentType": 5126,
            "count": 544,
            "max": [
                1.0,
                0.9999999403953552,
                1.0
            ],
            "min": [
                -1.0,
                -0.9999999403953552,
                -1.0
            ],
            "name": "accessor_buffer_Cube.003_NORMAL_0",
            "type": "VEC3"
        }
    ],
    "asset": {
        "copyright": "",
        "generator": "blendergltf v1.2.0",
        "version": "2.0"
    },
    "bufferViews": [
        {
            "buffer": 0,
            "byteLength": 6528,
            "byteOffset": 0,
            "byteStride": 12,
            "name": "bufferView_buffer_Cube.003_POSITION_0",
            "target": 34962
        },
        {
            "buffer": 0,
            "byteLength": 6528,
            "byteOffset": 6528,
            "byteStride": 12,
            "name": "bufferView_buffer_Cube.003_NORMAL_0",
            "target": 34962
        },
        {
            "buffer": 0,
            "byteLength": 1564,
            "byteOffset": 13056,
            "name": "bufferView_buffer_Cube.003_0",
            "target": 34963
        }
    ],
    "buffers": [
        {
            "byteLength": 14620,
            "name": "buffer_dev-logo",
            "uri": "buffer_dev-logo.bin"
        }
    ],
    "materials": [
        {
            "alphaMode": "OPAQUE",
            "doubleSided": false,
            "emissiveFactor": [
                0.0,
                0.0,
                0.0
            ],
            "name": "Material",
            "pbrMetallicRoughness": {
                "baseColorFactor": [
                    0.0,
                    0.0,
                    0.0,
                    1.0
                ],
                "metallicFactor": 0.0,
                "roughnessFactor": 1.0
            }
        },
        {
            "alphaMode": "OPAQUE",
            "doubleSided": false,
            "emissiveFactor": [
                0.0,
                0.0,
                0.0
            ],
            "name": "Material.001",
            "pbrMetallicRoughness": {
                "baseColorFactor": [
                    0.800000011920929,
                    0.04760899767279625,
                    0.0,
                    1.0
                ],
                "metallicFactor": 0.0,
                "roughnessFactor": 1.0
            }
        },
        {
            "alphaMode": "OPAQUE",
            "doubleSided": false,
            "emissiveFactor": [
                0.0,
                0.0,
                0.0
            ],
            "name": "Material.002",
            "pbrMetallicRoughness": {
                "baseColorFactor": [
                    0.64000004529953,
                    0.64000004529953,
                    0.64000004529953,
                    1.0
                ],
                "metallicFactor": 0.0,
                "roughnessFactor": 1.0
            }
        }
    ],
    "meshes": [
        {
            "name": "Cube.003",
            "primitives": [
                {
                    "attributes": {
                        "NORMAL": 2,
                        "POSITION": 0
                    },
                    "indices": 1,
                    "material": 1,
                    "mode": 4
                }
            ]
        }
    ],
    "nodes": [
        {
            "mesh": 0,
            "name": "Cube.002",
            "rotation": [
                -2.8290120468454916e-08,
                -4.040248668957247e-08,
                -0.30070579051971436,
                0.9537169337272644
            ],
            "scale": [
                0.09375,
                0.5625,
                0.03125
            ],
            "translation": [
                0.0,
                -3.725290298461914e-09,
                0.0
            ]
        },
        {
            "name": "Point",
            "rotation": [
                0.0,
                -0.7071068286895752,
                0.7071068286895752,
                0.0
            ],
            "scale": [
                0.25,
                0.25,
                0.25
            ],
            "translation": [
                0.0,
                0.0,
                0.0
            ]
        }
    ],
    "scene": 0,
    "scenes": [
        {
            "extras": {
                "background_color": [
                    0.05087608844041824,
                    0.05087608844041824,
                    0.05087608844041824
                ],
                "frames_per_second": 24
            },
            "name": "Scene",
            "nodes": [
                1,
                0
            ]
        }
    ]
}
